<?xml version="1.0" encoding="UTF-8"?>
<svg width="644px" height="70px" viewBox="0 0 644 70" version="1.1" xmlns="http://www.w3.org/2000/svg" xmlns:xlink="http://www.w3.org/1999/xlink">
    <title>Slice</title>
    <g id="Page-1" stroke="none" stroke-width="1" fill="none" fill-rule="evenodd">
        <g id="Heirs-of-Hippocrates-Copy" transform="translate(2.376953, -2.382812)" fill="#FFFFFF" fill-rule="nonzero">
            <path d="M0,4.67578125 L0,2.42578125 L10.7578125,2.63671875 L20.671875,2.42578125 L20.671875,4.67578125 C17.8828125,4.72265625 16.1894531,4.84570312 15.5917969,5.04492188 C14.9941406,5.24414062 14.578125,5.51953125 14.34375,5.87109375 C14.0625,6.33984375 13.8867188,7.4765625 13.8164062,9.28125 C13.7929688,9.75 13.7460938,13.078125 13.6757812,19.265625 L13.6757812,24.1523438 C18.2929688,24.3164062 23.9179688,24.3984375 30.5507812,24.3984375 C35.6367188,24.3984375 39.703125,24.3164062 42.75,24.1523438 L42.75,19.265625 C42.75,16.078125 42.703125,12.9609375 42.609375,9.9140625 C42.5390625,7.6875 42.3691406,6.36914062 42.0996094,5.95898438 C41.8300781,5.54882812 41.3964844,5.24414062 40.7988281,5.04492188 C40.2011719,4.84570312 38.5078125,4.72265625 35.71875,4.67578125 L35.71875,2.42578125 C40.7578125,2.56640625 44.2148438,2.63671875 46.0898438,2.63671875 C46.7929688,2.63671875 50.2148438,2.56640625 56.3554688,2.42578125 L56.3554688,4.67578125 C53.5898438,4.72265625 51.9023438,4.84570312 51.2929688,5.04492188 C50.6835938,5.24414062 50.2734375,5.51953125 50.0625,5.87109375 C49.7578125,6.33984375 49.5703125,7.4765625 49.5,9.28125 C49.4765625,9.75 49.4296875,13.078125 49.359375,19.265625 L49.359375,35.5429688 C49.359375,38.7304688 49.40625,41.8359375 49.5,44.859375 C49.546875,47.0859375 49.7050781,48.4101562 49.9746094,48.8320312 C50.2441406,49.2539062 50.6835938,49.5644531 51.2929688,49.7636719 C51.9023438,49.9628906 53.5898438,50.0859375 56.3554688,50.1328125 L56.3554688,52.3828125 C51.8320312,52.1953125 48.1289062,52.1015625 45.2460938,52.1015625 C42.1757812,52.1015625 39,52.1953125 35.71875,52.3828125 L35.71875,50.1328125 C38.5078125,50.0859375 40.2011719,49.9628906 40.7988281,49.7636719 C41.3964844,49.5644531 41.8125,49.2890625 42.046875,48.9375 C42.3515625,48.46875 42.5273438,47.3320312 42.5742188,45.5273438 C42.5976562,45.0351562 42.65625,41.7070312 42.75,35.5429688 L42.75,27.5273438 C36.1875,27.3867188 31.2070312,27.3164062 27.8085938,27.3164062 C24.1054688,27.3164062 19.3945312,27.3867188 13.6757812,27.5273438 L13.6757812,35.5429688 C13.6757812,38.7304688 13.7109375,41.8359375 13.78125,44.859375 C13.8515625,47.0859375 14.0214844,48.4101562 14.2910156,48.8320312 C14.5605469,49.2539062 14.9941406,49.5644531 15.5917969,49.7636719 C16.1894531,49.9628906 17.8828125,50.0859375 20.671875,50.1328125 L20.671875,52.3828125 C17.5078125,52.171875 14.25,52.0664062 10.8984375,52.0664062 C7.2421875,52.0664062 3.609375,52.171875 0,52.3828125 L0,50.1328125 C2.765625,50.0859375 4.453125,49.9628906 5.0625,49.7636719 C5.671875,49.5644531 6.09375,49.2890625 6.328125,48.9375 C6.609375,48.46875 6.78515625,47.3320312 6.85546875,45.5273438 C6.87890625,45.0351562 6.92578125,41.7070312 6.99609375,35.5429688 L6.99609375,19.265625 C6.99609375,16.078125 6.9609375,12.9609375 6.890625,9.9140625 C6.8203125,7.6875 6.65039062,6.36914062 6.38085938,5.95898438 C6.11132812,5.54882812 5.67773438,5.24414062 5.08007812,5.04492188 C4.48242188,4.84570312 2.7890625,4.72265625 0,4.67578125 Z" id="Path"></path>
            <path d="M88.1367188,46.9335938 L87.0117188,49.4648438 C85.3945312,50.4726562 84.2109375,51.140625 83.4609375,51.46875 C82.359375,51.9609375 81.0996094,52.3769531 79.6816406,52.7167969 C78.2636719,53.0566406 76.7695312,53.2265625 75.1992188,53.2265625 C72.1054688,53.2265625 69.3046875,52.5820312 66.796875,51.2929688 C64.2890625,50.0039062 62.3378906,48.0761719 60.9433594,45.5097656 C59.5488281,42.9433594 58.8515625,39.9375 58.8515625,36.4921875 C58.8515625,33.796875 59.2207031,31.3652344 59.9589844,29.1972656 C60.6972656,27.0292969 61.5351562,25.4296875 62.4726562,24.3984375 C63.1523438,23.6484375 64.2070312,22.7871094 65.6367188,21.8144531 C67.0664062,20.8417969 68.484375,20.0742188 69.890625,19.5117188 C71.7421875,18.7382812 73.7460938,18.3515625 75.9023438,18.3515625 C78.5273438,18.3515625 80.9003906,18.9492188 83.0214844,20.1445312 C85.1425781,21.3398438 86.6953125,22.96875 87.6796875,25.03125 C88.6640625,27.09375 89.15625,29.4257812 89.15625,32.0273438 C89.15625,32.6835938 89.109375,33.4804688 89.015625,34.4179688 C87.328125,34.7460938 85.8164062,34.9570312 84.4804688,35.0507812 C81.9492188,35.2382812 79.4179688,35.3320312 76.8867188,35.3320312 L65.6015625,35.3320312 C65.6484375,38.6835938 66.2285156,41.3964844 67.3417969,43.4707031 C68.4550781,45.5449219 69.9902344,47.0742188 71.9472656,48.0585938 C73.9042969,49.0429688 75.9375,49.5351562 78.046875,49.5351562 C79.4765625,49.5351562 80.9003906,49.3066406 82.3183594,48.8496094 C83.7363281,48.3925781 85.4882812,47.5546875 87.5742188,46.3359375 L88.1367188,46.9335938 Z M65.6015625,32.5546875 C66.2578125,32.625 67.5,32.6953125 69.328125,32.765625 C72.8203125,32.8828125 75.2226562,32.9414062 76.5351562,32.9414062 C79.6523438,32.9414062 81.703125,32.8828125 82.6875,32.765625 C82.7109375,32.203125 82.7226562,31.7695312 82.7226562,31.4648438 C82.7226562,27.7617188 81.9726562,25.0429688 80.4726562,23.3085938 C78.9726562,21.5742188 76.96875,20.7070312 74.4609375,20.7070312 C71.8125,20.7070312 69.6796875,21.65625 68.0625,23.5546875 C66.4453125,25.453125 65.625,28.453125 65.6015625,32.5546875 Z" id="Shape"></path>
            <path d="M100.582031,2.8828125 C101.683594,2.8828125 102.615234,3.26953125 103.376953,4.04296875 C104.138672,4.81640625 104.519531,5.75390625 104.519531,6.85546875 C104.519531,7.93359375 104.132812,8.859375 103.359375,9.6328125 C102.585938,10.40625 101.660156,10.7929688 100.582031,10.7929688 C99.4804688,10.7929688 98.5429688,10.40625 97.7695312,9.6328125 C96.9960938,8.859375 96.609375,7.93359375 96.609375,6.85546875 C96.609375,5.75390625 96.9960938,4.81640625 97.7695312,4.04296875 C98.5429688,3.26953125 99.4804688,2.8828125 100.582031,2.8828125 Z M92.0039062,23.4492188 L92.0039062,21.4453125 C96.5507812,20.9296875 100.371094,19.9453125 103.464844,18.4921875 L104.238281,19.0546875 C104.050781,24.046875 103.957031,27.8671875 103.957031,30.515625 L103.957031,36.9140625 C104.074219,43.0078125 104.144531,46.3007812 104.167969,46.7929688 C104.191406,47.9648438 104.320312,48.8203125 104.554688,49.359375 C104.671875,49.5703125 104.824219,49.7519531 105.011719,49.9042969 C105.199219,50.0566406 105.480469,50.1796875 105.855469,50.2734375 C105.996094,50.296875 107.296875,50.3320312 109.757812,50.3789062 L109.757812,52.3828125 C106.195312,52.21875 103.347656,52.1367188 101.214844,52.1367188 C99.3398438,52.1367188 96.2695312,52.21875 92.0039062,52.3828125 L92.0039062,50.3789062 L95.34375,50.34375 C95.8359375,50.3203125 96.2167969,50.2324219 96.4863281,50.0800781 C96.7558594,49.9277344 96.9609375,49.734375 97.1015625,49.5 C97.359375,49.03125 97.5234375,48.1992188 97.59375,47.0039062 C97.59375,46.6992188 97.6640625,43.3359375 97.8046875,36.9140625 L97.8046875,30.7265625 C97.8046875,27.234375 97.6875,25.1601562 97.453125,24.5039062 C97.3125,24.1523438 97.0605469,23.8886719 96.6972656,23.7128906 C96.3339844,23.5371094 94.7695312,23.4492188 92.0039062,23.4492188 Z" id="Shape"></path>
            <path d="M111.902344,52.3828125 L111.902344,50.3789062 C114.550781,50.3320312 115.980469,50.2851562 116.191406,50.2382812 C116.589844,50.1679688 116.888672,50.0566406 117.087891,49.9042969 C117.287109,49.7519531 117.445312,49.5351562 117.5625,49.2539062 C117.796875,48.7148438 117.9375,47.8710938 117.984375,46.7226562 C118.125,40.4648438 118.195312,37.1953125 118.195312,36.9140625 L118.195312,32.7304688 C118.195312,30.8554688 118.160156,28.8398438 118.089844,26.6835938 C118.042969,25.3007812 117.943359,24.4804688 117.791016,24.2226562 C117.638672,23.9648438 117.369141,23.7714844 116.982422,23.6425781 C116.595703,23.5136719 115.066406,23.4609375 112.394531,23.484375 L112.394531,21.4804688 C117.128906,20.8242188 120.585938,19.96875 122.765625,18.9140625 C123.234375,18.6796875 123.550781,18.5625 123.714844,18.5625 C123.878906,18.5625 124.007812,18.6210938 124.101562,18.7382812 C124.195312,18.8554688 124.242188,19.03125 124.242188,19.265625 C124.242188,19.4296875 124.230469,19.6171875 124.207031,19.828125 C124.089844,21.2578125 124.019531,23.4726562 123.996094,26.4726562 C125.050781,25.2539062 126.023438,24.046875 126.914062,22.8515625 C127.804688,21.65625 128.449219,20.8828125 128.847656,20.53125 C129.550781,19.921875 130.359375,19.4355469 131.273438,19.0722656 C132.1875,18.7089844 133.136719,18.5273438 134.121094,18.5273438 C135.105469,18.5273438 136.078125,18.7382812 137.039062,19.1601562 L137.25,19.6523438 C136.898438,22.7695312 136.699219,25.5117188 136.652344,27.8789062 L135.070312,27.8789062 C134.53125,26.7539062 133.904297,25.9335938 133.189453,25.4179688 C132.474609,24.9023438 131.578125,24.6445312 130.5,24.6445312 C128.695312,24.6445312 127.160156,25.3886719 125.894531,26.8769531 C124.628906,28.3652344 123.996094,30.5976562 123.996094,33.5742188 L123.996094,37.1953125 C123.996094,38.7421875 124.054688,41.5664062 124.171875,45.6679688 C124.195312,47.1210938 124.253906,48.046875 124.347656,48.4453125 C124.441406,48.84375 124.564453,49.1308594 124.716797,49.3066406 C124.869141,49.4824219 125.121094,49.6289062 125.472656,49.7460938 C126.175781,49.9570312 128.074219,50.1679688 131.167969,50.3789062 L131.167969,52.3828125 C127.042969,52.21875 123.527344,52.1367188 120.621094,52.1367188 C117.621094,52.1367188 114.714844,52.21875 111.902344,52.3828125 Z" id="Path"></path>
            <path d="M140.835938,41.765625 L142.945312,41.765625 C142.96875,43.125 143.039062,44.203125 143.15625,45 C143.273438,45.796875 143.472656,46.5761719 143.753906,47.3378906 C144.035156,48.0996094 144.46875,48.7441406 145.054688,49.2714844 C145.640625,49.7988281 146.279297,50.2089844 146.970703,50.5019531 C147.662109,50.7949219 148.365234,50.9882812 149.080078,51.0820312 C149.794922,51.1757812 150.878906,51.2226562 152.332031,51.2226562 C154.722656,51.2226562 156.685547,50.5898438 158.220703,49.3242188 C159.755859,48.0585938 160.523438,46.3242188 160.523438,44.1210938 C160.523438,43.1367188 160.283203,42.2695312 159.802734,41.5195312 C159.322266,40.7695312 158.630859,40.1835938 157.728516,39.7617188 C156.826172,39.3398438 154.886719,38.7890625 151.910156,38.109375 C148.933594,37.4296875 147.011719,36.9375 146.144531,36.6328125 C144.832031,36.140625 143.789062,35.5429688 143.015625,34.8398438 C142.242188,34.1367188 141.626953,33.2460938 141.169922,32.1679688 C140.712891,31.0898438 140.484375,29.9179688 140.484375,28.6523438 C140.484375,26.8007812 140.970703,25.0957031 141.943359,23.5371094 C142.916016,21.9785156 144.445312,20.7128906 146.53125,19.7402344 C148.617188,18.7675781 150.890625,18.28125 153.351562,18.28125 C154.828125,18.28125 156.539062,18.4863281 158.484375,18.8964844 C160.429688,19.3066406 162.011719,19.8164062 163.230469,20.4257812 C163.066406,23.0273438 162.949219,25.6757812 162.878906,28.3710938 L160.875,28.3710938 C160.757812,26.6601562 160.623047,25.5351562 160.470703,24.9960938 C160.318359,24.4570312 160.113281,23.9765625 159.855469,23.5546875 C159.597656,23.1328125 159.152344,22.6816406 158.519531,22.2011719 C157.886719,21.7207031 157.072266,21.2929688 156.076172,20.9179688 C155.080078,20.5429688 153.855469,20.3554688 152.402344,20.3554688 C150.339844,20.3554688 148.681641,20.9648438 147.427734,22.1835938 C146.173828,23.4023438 145.546875,24.8320312 145.546875,26.4726562 C145.546875,27.3867188 145.728516,28.171875 146.091797,28.828125 C146.455078,29.484375 146.941406,30.0175781 147.550781,30.4277344 C148.160156,30.8378906 149.015625,31.2070312 150.117188,31.5351562 L155.953125,32.9765625 C158.90625,33.7265625 160.939453,34.3710938 162.052734,34.9101562 C163.166016,35.4492188 164.0625,36.2871094 164.742188,37.4238281 C165.421875,38.5605469 165.761719,39.9257812 165.761719,41.5195312 C165.761719,44.6835938 164.455078,47.4433594 161.841797,49.7988281 C159.228516,52.1542969 155.730469,53.3320312 151.347656,53.3320312 C149.332031,53.3320312 146.648438,53.0273438 143.296875,52.4179688 C141.445312,52.0664062 140.449219,51.8203125 140.308594,51.6796875 C140.214844,51.609375 140.167969,51.4921875 140.167969,51.328125 C140.167969,51.1640625 140.191406,50.9648438 140.238281,50.7304688 C140.449219,49.7226562 140.589844,48.7382812 140.660156,47.7773438 C140.730469,46.8164062 140.789062,44.8125 140.835938,41.765625 Z" id="Path"></path>
            <path d="M186.222656,36.2109375 C186.222656,30.9609375 187.892578,26.6777344 191.232422,23.3613281 C194.572266,20.0449219 198.855469,18.3867188 204.082031,18.3867188 C209.003906,18.3867188 213.011719,19.9335938 216.105469,23.0273438 C219.199219,26.1210938 220.746094,30.1171875 220.746094,35.015625 C220.746094,38.4375 219.949219,41.5664062 218.355469,44.4023438 C216.761719,47.2382812 214.511719,49.4589844 211.605469,51.0644531 C208.699219,52.6699219 205.5,53.4726562 202.007812,53.4726562 C199.289062,53.4726562 196.986328,53.015625 195.099609,52.1015625 C193.212891,51.1875 191.683594,50.0390625 190.511719,48.65625 C189.339844,47.2734375 188.449219,45.8554688 187.839844,44.4023438 C186.761719,41.8476562 186.222656,39.1171875 186.222656,36.2109375 Z M192.867188,33.609375 C192.867188,36.4921875 193.347656,39.421875 194.308594,42.3984375 C195.269531,45.375 196.658203,47.5488281 198.474609,48.9199219 C200.291016,50.2910156 202.265625,50.9765625 204.398438,50.9765625 C207.117188,50.9765625 209.390625,49.8984375 211.21875,47.7421875 C213.046875,45.5859375 213.960938,42.2695312 213.960938,37.7929688 C213.960938,34.0664062 213.416016,30.8496094 212.326172,28.1425781 C211.236328,25.4355469 209.847656,23.5253906 208.160156,22.4121094 C206.472656,21.2988281 204.609375,20.7421875 202.570312,20.7421875 C199.6875,20.7421875 197.349609,21.7851562 195.556641,23.8710938 C193.763672,25.9570312 192.867188,29.203125 192.867188,33.609375 Z" id="Shape"></path>
            <path d="M224.683594,24.890625 L224.683594,23.4492188 C226.511719,22.6757812 228.128906,21.8554688 229.535156,20.9882812 L229.535156,18.8789062 C229.535156,15.8320313 229.728516,13.6816406 230.115234,12.4277344 C230.501953,11.1738281 231.046875,10.0546875 231.75,9.0703125 C232.804688,7.6171875 234.46875,5.765625 236.742188,3.515625 C238.265625,2.0390625 239.390625,1.11328125 240.117188,0.73828125 C241.078125,0.24609375 242.203125,0 243.492188,0 C244.40625,0 245.34375,0.15234375 246.304688,0.45703125 L246.445312,6.29296875 L245.636719,6.609375 C244.910156,6 244.189453,5.5546875 243.474609,5.2734375 C242.759766,4.9921875 241.921875,4.8515625 240.960938,4.8515625 C239.695312,4.8515625 238.664062,5.109375 237.867188,5.625 C237.070312,6.140625 236.490234,6.87890625 236.126953,7.83984375 C235.763672,8.80078125 235.582031,10.7578125 235.582031,13.7109375 L235.582031,20.9882812 L239.308594,20.9882812 C241.183594,20.9882812 243.023438,20.9179688 244.828125,20.7773438 L245.179688,20.9882812 L244.476562,24.609375 C242.4375,24.515625 240.9375,24.46875 239.976562,24.46875 C238.992188,24.46875 237.527344,24.515625 235.582031,24.609375 L235.582031,37.1953125 C235.582031,38.7421875 235.640625,41.5664062 235.757812,45.6679688 C235.78125,47.1210938 235.839844,48.046875 235.933594,48.4453125 C236.027344,48.84375 236.150391,49.1308594 236.302734,49.3066406 C236.455078,49.4824219 236.707031,49.6289062 237.058594,49.7460938 C237.761719,49.9570312 239.660156,50.1679688 242.753906,50.3789062 L242.753906,52.3828125 C237.292969,52.21875 233.964844,52.1367188 232.769531,52.1367188 C231.691406,52.1367188 228.679688,52.21875 223.734375,52.3828125 L223.734375,50.3789062 L227.074219,50.34375 C227.566406,50.3203125 227.947266,50.2324219 228.216797,50.0800781 C228.486328,49.9277344 228.691406,49.734375 228.832031,49.5 C229.089844,49.03125 229.253906,48.1992188 229.324219,47.0039062 C229.324219,46.6992188 229.394531,43.3359375 229.535156,36.9140625 L229.535156,24.609375 L224.683594,24.890625 Z" id="Path"></path>
            <path d="M263.460938,4.67578125 L263.460938,2.42578125 L274.21875,2.63671875 L284.132812,2.42578125 L284.132812,4.67578125 C281.34375,4.72265625 279.650391,4.84570312 279.052734,5.04492188 C278.455078,5.24414062 278.039062,5.51953125 277.804688,5.87109375 C277.523438,6.33984375 277.347656,7.4765625 277.277344,9.28125 C277.253906,9.75 277.207031,13.078125 277.136719,19.265625 L277.136719,24.1523438 C281.753906,24.3164062 287.378906,24.3984375 294.011719,24.3984375 C299.097656,24.3984375 303.164062,24.3164062 306.210938,24.1523438 L306.210938,19.265625 C306.210938,16.078125 306.164062,12.9609375 306.070312,9.9140625 C306,7.6875 305.830078,6.36914062 305.560547,5.95898438 C305.291016,5.54882812 304.857422,5.24414062 304.259766,5.04492188 C303.662109,4.84570312 301.96875,4.72265625 299.179688,4.67578125 L299.179688,2.42578125 C304.21875,2.56640625 307.675781,2.63671875 309.550781,2.63671875 C310.253906,2.63671875 313.675781,2.56640625 319.816406,2.42578125 L319.816406,4.67578125 C317.050781,4.72265625 315.363281,4.84570312 314.753906,5.04492188 C314.144531,5.24414062 313.734375,5.51953125 313.523438,5.87109375 C313.21875,6.33984375 313.03125,7.4765625 312.960938,9.28125 C312.9375,9.75 312.890625,13.078125 312.820312,19.265625 L312.820312,35.5429688 C312.820312,38.7304688 312.867188,41.8359375 312.960938,44.859375 C313.007812,47.0859375 313.166016,48.4101562 313.435547,48.8320312 C313.705078,49.2539062 314.144531,49.5644531 314.753906,49.7636719 C315.363281,49.9628906 317.050781,50.0859375 319.816406,50.1328125 L319.816406,52.3828125 C315.292969,52.1953125 311.589844,52.1015625 308.707031,52.1015625 C305.636719,52.1015625 302.460938,52.1953125 299.179688,52.3828125 L299.179688,50.1328125 C301.96875,50.0859375 303.662109,49.9628906 304.259766,49.7636719 C304.857422,49.5644531 305.273438,49.2890625 305.507812,48.9375 C305.8125,48.46875 305.988281,47.3320312 306.035156,45.5273438 C306.058594,45.0351562 306.117188,41.7070312 306.210938,35.5429688 L306.210938,27.5273438 C299.648438,27.3867188 294.667969,27.3164062 291.269531,27.3164062 C287.566406,27.3164062 282.855469,27.3867188 277.136719,27.5273438 L277.136719,35.5429688 C277.136719,38.7304688 277.171875,41.8359375 277.242188,44.859375 C277.3125,47.0859375 277.482422,48.4101562 277.751953,48.8320312 C278.021484,49.2539062 278.455078,49.5644531 279.052734,49.7636719 C279.650391,49.9628906 281.34375,50.0859375 284.132812,50.1328125 L284.132812,52.3828125 C280.96875,52.171875 277.710938,52.0664062 274.359375,52.0664062 C270.703125,52.0664062 267.070312,52.171875 263.460938,52.3828125 L263.460938,50.1328125 C266.226562,50.0859375 267.914062,49.9628906 268.523438,49.7636719 C269.132812,49.5644531 269.554688,49.2890625 269.789062,48.9375 C270.070312,48.46875 270.246094,47.3320312 270.316406,45.5273438 C270.339844,45.0351562 270.386719,41.7070312 270.457031,35.5429688 L270.457031,19.265625 C270.457031,16.078125 270.421875,12.9609375 270.351562,9.9140625 C270.28125,7.6875 270.111328,6.36914062 269.841797,5.95898438 C269.572266,5.54882812 269.138672,5.24414062 268.541016,5.04492188 C267.943359,4.84570312 266.25,4.72265625 263.460938,4.67578125 Z" id="Path"></path>
            <path d="M330.679688,2.8828125 C331.78125,2.8828125 332.712891,3.26953125 333.474609,4.04296875 C334.236328,4.81640625 334.617188,5.75390625 334.617188,6.85546875 C334.617188,7.93359375 334.230469,8.859375 333.457031,9.6328125 C332.683594,10.40625 331.757812,10.7929688 330.679688,10.7929688 C329.578125,10.7929688 328.640625,10.40625 327.867188,9.6328125 C327.09375,8.859375 326.707031,7.93359375 326.707031,6.85546875 C326.707031,5.75390625 327.09375,4.81640625 327.867188,4.04296875 C328.640625,3.26953125 329.578125,2.8828125 330.679688,2.8828125 Z M322.101562,23.4492188 L322.101562,21.4453125 C326.648438,20.9296875 330.46875,19.9453125 333.5625,18.4921875 L334.335938,19.0546875 C334.148438,24.046875 334.054688,27.8671875 334.054688,30.515625 L334.054688,36.9140625 C334.171875,43.0078125 334.242188,46.3007812 334.265625,46.7929688 C334.289062,47.9648438 334.417969,48.8203125 334.652344,49.359375 C334.769531,49.5703125 334.921875,49.7519531 335.109375,49.9042969 C335.296875,50.0566406 335.578125,50.1796875 335.953125,50.2734375 C336.09375,50.296875 337.394531,50.3320312 339.855469,50.3789062 L339.855469,52.3828125 C336.292969,52.21875 333.445312,52.1367188 331.3125,52.1367188 C329.4375,52.1367188 326.367188,52.21875 322.101562,52.3828125 L322.101562,50.3789062 L325.441406,50.34375 C325.933594,50.3203125 326.314453,50.2324219 326.583984,50.0800781 C326.853516,49.9277344 327.058594,49.734375 327.199219,49.5 C327.457031,49.03125 327.621094,48.1992188 327.691406,47.0039062 C327.691406,46.6992188 327.761719,43.3359375 327.902344,36.9140625 L327.902344,30.7265625 C327.902344,27.234375 327.785156,25.1601562 327.550781,24.5039062 C327.410156,24.1523438 327.158203,23.8886719 326.794922,23.7128906 C326.431641,23.5371094 324.867188,23.4492188 322.101562,23.4492188 Z" id="Shape"></path>
            <path d="M341.613281,23.4492188 L341.613281,21.4101562 C342.035156,21.4101562 342.925781,21.3105469 344.285156,21.1113281 C345.644531,20.9121094 347.15625,20.5722656 348.820312,20.0917969 C350.484375,19.6113281 351.738281,19.1484375 352.582031,18.703125 C352.839844,18.5625 353.050781,18.4921875 353.214844,18.4921875 C353.378906,18.4921875 353.513672,18.5507812 353.619141,18.6679688 C353.724609,18.7851562 353.777344,18.984375 353.777344,19.265625 C353.777344,19.3828125 353.765625,19.6640625 353.742188,20.109375 C353.695312,20.7890625 353.671875,21.4101562 353.671875,21.9726562 L353.671875,25.6992188 C357.632812,22.0195312 360.105469,19.9453125 361.089844,19.4765625 C362.378906,18.84375 364.300781,18.5273438 366.855469,18.5273438 C369.832031,18.5273438 372.398438,19.2011719 374.554688,20.5488281 C376.710938,21.8964844 378.275391,23.6425781 379.248047,25.7871094 C380.220703,27.9316406 380.707031,30.2226562 380.707031,32.6601562 C380.707031,34.1367188 380.537109,35.53125 380.197266,36.84375 C379.857422,38.15625 379.423828,39.3925781 378.896484,40.5527344 C378.369141,41.7128906 377.783203,42.7792969 377.138672,43.7519531 C376.494141,44.7246094 375.890625,45.4570312 375.328125,45.9492188 C375,46.2539062 374.150391,46.9570312 372.779297,48.0585938 C371.408203,49.1601562 369.943359,50.1152344 368.384766,50.9238281 C366.826172,51.7324219 365.742188,52.2304688 365.132812,52.4179688 C363.796875,52.8398438 362.378906,53.0507812 360.878906,53.0507812 C359.707031,53.0507812 358.564453,52.9101562 357.451172,52.6289062 C356.337891,52.3476562 355.078125,51.8671875 353.671875,51.1875 L353.671875,56.7773438 C353.789062,62.7070312 353.859375,65.9765625 353.882812,66.5859375 C353.90625,67.734375 354.046875,68.578125 354.304688,69.1171875 C354.398438,69.375 354.544922,69.5800781 354.744141,69.7324219 C354.943359,69.8847656 355.230469,69.9960938 355.605469,70.0664062 C355.816406,70.1132812 357.210938,70.1601562 359.789062,70.2070312 L359.789062,72.2109375 C356.859375,72.09375 352.980469,72.0351562 348.152344,72.0351562 C345.480469,72.0351562 343.429688,72.09375 342,72.2109375 L342,70.2070312 L345.339844,70.171875 C345.832031,70.1484375 346.212891,70.0605469 346.482422,69.9082031 C346.751953,69.7558594 346.957031,69.5625 347.097656,69.328125 C347.355469,68.859375 347.519531,68.0273438 347.589844,66.8320312 C347.613281,66.5273438 347.683594,63.1757812 347.800781,56.7773438 L347.800781,44.296875 C347.800781,40.2421875 347.753906,36.0820312 347.660156,31.8164062 C347.566406,27.5507812 347.466797,25.2246094 347.361328,24.8378906 C347.255859,24.4511719 347.085938,24.1582031 346.851562,23.9589844 C346.617188,23.7597656 346.3125,23.625 345.9375,23.5546875 L341.613281,23.4492188 Z M353.671875,45.140625 C354.914062,46.40625 356.332031,47.4023438 357.925781,48.1289062 C359.519531,48.8554688 361.195312,49.21875 362.953125,49.21875 C365.085938,49.21875 367.025391,48.6855469 368.771484,47.6191406 C370.517578,46.5527344 371.900391,44.8945312 372.919922,42.6445312 C373.939453,40.3945312 374.449219,37.9453125 374.449219,35.296875 C374.449219,32.7421875 373.962891,30.5214844 372.990234,28.6347656 C372.017578,26.7480469 370.640625,25.3300781 368.859375,24.3808594 C367.078125,23.4316406 365.285156,22.9570312 363.480469,22.9570312 C362.144531,22.9570312 360.826172,23.2207031 359.525391,23.7480469 C358.224609,24.2753906 357.046875,25.0429688 355.992188,26.0507812 C354.9375,27.0585938 354.234375,28.0195312 353.882812,28.9335938 C353.742188,29.3789062 353.671875,30.234375 353.671875,31.5 L353.671875,45.140625 Z" id="Shape"></path>
            <path d="M383.765625,23.4492188 L383.765625,21.4101562 C384.1875,21.4101562 385.078125,21.3105469 386.4375,21.1113281 C387.796875,20.9121094 389.308594,20.5722656 390.972656,20.0917969 C392.636719,19.6113281 393.890625,19.1484375 394.734375,18.703125 C394.992188,18.5625 395.203125,18.4921875 395.367188,18.4921875 C395.53125,18.4921875 395.666016,18.5507812 395.771484,18.6679688 C395.876953,18.7851562 395.929688,18.984375 395.929688,19.265625 C395.929688,19.3828125 395.917969,19.6640625 395.894531,20.109375 C395.847656,20.7890625 395.824219,21.4101562 395.824219,21.9726562 L395.824219,25.6992188 C399.785156,22.0195312 402.257812,19.9453125 403.242188,19.4765625 C404.53125,18.84375 406.453125,18.5273438 409.007812,18.5273438 C411.984375,18.5273438 414.550781,19.2011719 416.707031,20.5488281 C418.863281,21.8964844 420.427734,23.6425781 421.400391,25.7871094 C422.373047,27.9316406 422.859375,30.2226562 422.859375,32.6601562 C422.859375,34.1367188 422.689453,35.53125 422.349609,36.84375 C422.009766,38.15625 421.576172,39.3925781 421.048828,40.5527344 C420.521484,41.7128906 419.935547,42.7792969 419.291016,43.7519531 C418.646484,44.7246094 418.042969,45.4570312 417.480469,45.9492188 C417.152344,46.2539062 416.302734,46.9570312 414.931641,48.0585938 C413.560547,49.1601562 412.095703,50.1152344 410.537109,50.9238281 C408.978516,51.7324219 407.894531,52.2304688 407.285156,52.4179688 C405.949219,52.8398438 404.53125,53.0507812 403.03125,53.0507812 C401.859375,53.0507812 400.716797,52.9101562 399.603516,52.6289062 C398.490234,52.3476562 397.230469,51.8671875 395.824219,51.1875 L395.824219,56.7773438 C395.941406,62.7070312 396.011719,65.9765625 396.035156,66.5859375 C396.058594,67.734375 396.199219,68.578125 396.457031,69.1171875 C396.550781,69.375 396.697266,69.5800781 396.896484,69.7324219 C397.095703,69.8847656 397.382812,69.9960938 397.757812,70.0664062 C397.96875,70.1132812 399.363281,70.1601562 401.941406,70.2070312 L401.941406,72.2109375 C399.011719,72.09375 395.132812,72.0351562 390.304688,72.0351562 C387.632812,72.0351562 385.582031,72.09375 384.152344,72.2109375 L384.152344,70.2070312 L387.492188,70.171875 C387.984375,70.1484375 388.365234,70.0605469 388.634766,69.9082031 C388.904297,69.7558594 389.109375,69.5625 389.25,69.328125 C389.507812,68.859375 389.671875,68.0273438 389.742188,66.8320312 C389.765625,66.5273438 389.835938,63.1757812 389.953125,56.7773438 L389.953125,44.296875 C389.953125,40.2421875 389.90625,36.0820312 389.8125,31.8164062 C389.71875,27.5507812 389.619141,25.2246094 389.513672,24.8378906 C389.408203,24.4511719 389.238281,24.1582031 389.003906,23.9589844 C388.769531,23.7597656 388.464844,23.625 388.089844,23.5546875 L383.765625,23.4492188 Z M395.824219,45.140625 C397.066406,46.40625 398.484375,47.4023438 400.078125,48.1289062 C401.671875,48.8554688 403.347656,49.21875 405.105469,49.21875 C407.238281,49.21875 409.177734,48.6855469 410.923828,47.6191406 C412.669922,46.5527344 414.052734,44.8945312 415.072266,42.6445312 C416.091797,40.3945312 416.601562,37.9453125 416.601562,35.296875 C416.601562,32.7421875 416.115234,30.5214844 415.142578,28.6347656 C414.169922,26.7480469 412.792969,25.3300781 411.011719,24.3808594 C409.230469,23.4316406 407.4375,22.9570312 405.632812,22.9570312 C404.296875,22.9570312 402.978516,23.2207031 401.677734,23.7480469 C400.376953,24.2753906 399.199219,25.0429688 398.144531,26.0507812 C397.089844,27.0585938 396.386719,28.0195312 396.035156,28.9335938 C395.894531,29.3789062 395.824219,30.234375 395.824219,31.5 L395.824219,45.140625 Z" id="Shape"></path>
            <path d="M427.042969,36.2109375 C427.042969,30.9609375 428.712891,26.6777344 432.052734,23.3613281 C435.392578,20.0449219 439.675781,18.3867188 444.902344,18.3867188 C449.824219,18.3867188 453.832031,19.9335938 456.925781,23.0273438 C460.019531,26.1210938 461.566406,30.1171875 461.566406,35.015625 C461.566406,38.4375 460.769531,41.5664062 459.175781,44.4023438 C457.582031,47.2382812 455.332031,49.4589844 452.425781,51.0644531 C449.519531,52.6699219 446.320312,53.4726562 442.828125,53.4726562 C440.109375,53.4726562 437.806641,53.015625 435.919922,52.1015625 C434.033203,51.1875 432.503906,50.0390625 431.332031,48.65625 C430.160156,47.2734375 429.269531,45.8554688 428.660156,44.4023438 C427.582031,41.8476562 427.042969,39.1171875 427.042969,36.2109375 Z M433.6875,33.609375 C433.6875,36.4921875 434.167969,39.421875 435.128906,42.3984375 C436.089844,45.375 437.478516,47.5488281 439.294922,48.9199219 C441.111328,50.2910156 443.085938,50.9765625 445.21875,50.9765625 C447.9375,50.9765625 450.210938,49.8984375 452.039062,47.7421875 C453.867188,45.5859375 454.78125,42.2695312 454.78125,37.7929688 C454.78125,34.0664062 454.236328,30.8496094 453.146484,28.1425781 C452.056641,25.4355469 450.667969,23.5253906 448.980469,22.4121094 C447.292969,21.2988281 445.429688,20.7421875 443.390625,20.7421875 C440.507812,20.7421875 438.169922,21.7851562 436.376953,23.8710938 C434.583984,25.9570312 433.6875,29.203125 433.6875,33.609375 Z" id="Shape"></path>
            <path d="M493.347656,48.3398438 L491.941406,50.6953125 C490.324219,51.5625 488.724609,52.1953125 487.142578,52.59375 C485.560547,52.9921875 483.773438,53.1914062 481.78125,53.1914062 C476.859375,53.1914062 472.939453,51.7089844 470.021484,48.7441406 C467.103516,45.7792969 465.644531,41.7070312 465.644531,36.5273438 C465.644531,33.7851562 466.037109,31.4003906 466.822266,29.3730469 C467.607422,27.3457031 468.574219,25.78125 469.722656,24.6796875 C470.496094,23.90625 471.966797,22.9042969 474.134766,21.6738281 C476.302734,20.4433594 477.820312,19.6523438 478.6875,19.3007812 C480.28125,18.6210938 482.191406,18.28125 484.417969,18.28125 C486.527344,18.28125 488.425781,18.5039062 490.113281,18.9492188 C491.191406,19.2304688 492.269531,19.6992188 493.347656,20.3554688 C493.066406,22.1601562 492.867188,23.5253906 492.75,24.4511719 C492.632812,25.3769531 492.480469,27.0585938 492.292969,29.4960938 L490.289062,29.4960938 C490.148438,27.2226562 490.007812,25.8046875 489.867188,25.2421875 C489.773438,24.890625 489.5625,24.5742188 489.234375,24.2929688 C488.390625,23.6367188 487.306641,23.0683594 485.982422,22.5878906 C484.658203,22.1074219 483.210938,21.8671875 481.640625,21.8671875 C479.671875,21.8671875 477.966797,22.2714844 476.525391,23.0800781 C475.083984,23.8886719 473.964844,25.171875 473.167969,26.9296875 C472.371094,28.6875 471.972656,30.8671875 471.972656,33.46875 C471.972656,36.65625 472.535156,39.5390625 473.660156,42.1171875 C474.785156,44.6953125 476.314453,46.5761719 478.248047,47.7597656 C480.181641,48.9433594 482.34375,49.5351562 484.734375,49.5351562 C485.929688,49.5351562 487.095703,49.3886719 488.232422,49.0957031 C489.369141,48.8027344 490.828125,48.2460938 492.609375,47.4257812 L493.347656,48.3398438 Z" id="Path"></path>
            <path d="M495.316406,52.3828125 L495.316406,50.3789062 C497.964844,50.3320312 499.394531,50.2851562 499.605469,50.2382812 C500.003906,50.1679688 500.302734,50.0566406 500.501953,49.9042969 C500.701172,49.7519531 500.859375,49.5351562 500.976562,49.2539062 C501.210938,48.7148438 501.351562,47.8710938 501.398438,46.7226562 C501.539062,40.4648438 501.609375,37.1953125 501.609375,36.9140625 L501.609375,32.7304688 C501.609375,30.8554688 501.574219,28.8398438 501.503906,26.6835938 C501.457031,25.3007812 501.357422,24.4804688 501.205078,24.2226562 C501.052734,23.9648438 500.783203,23.7714844 500.396484,23.6425781 C500.009766,23.5136719 498.480469,23.4609375 495.808594,23.484375 L495.808594,21.4804688 C500.542969,20.8242188 504,19.96875 506.179688,18.9140625 C506.648438,18.6796875 506.964844,18.5625 507.128906,18.5625 C507.292969,18.5625 507.421875,18.6210938 507.515625,18.7382812 C507.609375,18.8554688 507.65625,19.03125 507.65625,19.265625 C507.65625,19.4296875 507.644531,19.6171875 507.621094,19.828125 C507.503906,21.2578125 507.433594,23.4726562 507.410156,26.4726562 C508.464844,25.2539062 509.4375,24.046875 510.328125,22.8515625 C511.21875,21.65625 511.863281,20.8828125 512.261719,20.53125 C512.964844,19.921875 513.773438,19.4355469 514.6875,19.0722656 C515.601562,18.7089844 516.550781,18.5273438 517.535156,18.5273438 C518.519531,18.5273438 519.492188,18.7382812 520.453125,19.1601562 L520.664062,19.6523438 C520.3125,22.7695312 520.113281,25.5117188 520.066406,27.8789062 L518.484375,27.8789062 C517.945312,26.7539062 517.318359,25.9335938 516.603516,25.4179688 C515.888672,24.9023438 514.992188,24.6445312 513.914062,24.6445312 C512.109375,24.6445312 510.574219,25.3886719 509.308594,26.8769531 C508.042969,28.3652344 507.410156,30.5976562 507.410156,33.5742188 L507.410156,37.1953125 C507.410156,38.7421875 507.46875,41.5664062 507.585938,45.6679688 C507.609375,47.1210938 507.667969,48.046875 507.761719,48.4453125 C507.855469,48.84375 507.978516,49.1308594 508.130859,49.3066406 C508.283203,49.4824219 508.535156,49.6289062 508.886719,49.7460938 C509.589844,49.9570312 511.488281,50.1679688 514.582031,50.3789062 L514.582031,52.3828125 C510.457031,52.21875 506.941406,52.1367188 504.035156,52.1367188 C501.035156,52.1367188 498.128906,52.21875 495.316406,52.3828125 Z" id="Path"></path>
            <path d="M528.609375,28.3007812 L526.746094,27.8085938 C526.769531,27.2695312 526.78125,26.53125 526.78125,25.59375 C526.78125,24.609375 526.769531,23.8242188 526.746094,23.2382812 C529.722656,21.2929688 532.160156,19.9804688 534.058594,19.3007812 C535.511719,18.8085938 537.140625,18.5625 538.945312,18.5625 C541.617188,18.5625 543.867188,19.0664062 545.695312,20.0742188 C547.523438,21.0820312 548.882812,22.5234375 549.773438,24.3984375 C550.382812,25.7109375 550.6875,27.5039062 550.6875,29.7773438 L550.546875,36.2109375 L550.546875,46.6875 C550.546875,47.8125 550.640625,48.6210938 550.828125,49.1132812 C550.96875,49.4648438 551.191406,49.7226562 551.496094,49.8867188 C551.730469,50.0273438 552.222656,50.1210938 552.972656,50.1679688 L555.257812,50.3789062 L555.257812,52.3828125 C553.335938,52.21875 551.648438,52.1367188 550.195312,52.1367188 C548.789062,52.1367188 546.914062,52.21875 544.570312,52.3828125 L544.746094,46.1953125 C539.964844,49.8046875 537.128906,51.8378906 536.238281,52.2949219 C535.347656,52.7519531 534.222656,52.9804688 532.863281,52.9804688 C530.027344,52.9804688 527.818359,52.2246094 526.236328,50.7128906 C524.654297,49.2011719 523.863281,47.1914062 523.863281,44.6835938 C523.863281,43.0664062 524.138672,41.5898438 524.689453,40.2539062 C525.240234,38.9179688 525.902344,37.8574219 526.675781,37.0722656 C527.449219,36.2871094 528.234375,35.7070312 529.03125,35.3320312 C530.390625,34.6992188 532.599609,34.0195312 535.658203,33.2929688 C538.716797,32.5664062 541.746094,32.0273438 544.746094,31.6757812 C544.769531,29.4492188 544.5,27.7148438 543.9375,26.4726562 C543.375,25.2304688 542.425781,24.2109375 541.089844,23.4140625 C539.753906,22.6171875 538.125,22.21875 536.203125,22.21875 C534.820312,22.21875 533.607422,22.40625 532.564453,22.78125 C531.521484,23.15625 530.882812,23.4726562 530.648438,23.7304688 L530.015625,24.9960938 C529.382812,26.4023438 528.914062,27.5039062 528.609375,28.3007812 Z M544.746094,33.8203125 C541.699219,34.3359375 539.097656,34.9101562 536.941406,35.5429688 C534.785156,36.1757812 533.261719,36.8320312 532.371094,37.5117188 C531.832031,37.9101562 531.363281,38.5078125 530.964844,39.3046875 C530.355469,40.4765625 530.050781,41.7773438 530.050781,43.2070312 C530.050781,44.9414062 530.53125,46.2949219 531.492188,47.2675781 C532.453125,48.2402344 533.789062,48.7265625 535.5,48.7265625 C537.070312,48.7265625 538.623047,48.2753906 540.158203,47.3730469 C541.693359,46.4707031 543.222656,45.1171875 544.746094,43.3125 L544.746094,33.8203125 Z" id="Shape"></path>
            <path d="M557.472656,24.8203125 L557.472656,23.34375 C559.816406,22.453125 561.679688,21.65625 563.0625,20.953125 C563.0625,15.375 562.992188,11.8125 562.851562,10.265625 C565.289062,9.421875 567.269531,8.51953125 568.792969,7.55859375 L569.636719,8.26171875 C569.378906,10.2070312 569.097656,14.4960938 568.792969,21.1289062 C570.667969,21.1523438 571.792969,21.1640625 572.167969,21.1640625 C572.378906,21.1640625 573.585938,21.140625 575.789062,21.09375 C577.007812,21.0703125 577.921875,21.0234375 578.53125,20.953125 L578.777344,21.1992188 L578.039062,24.46875 C576.5625,24.4453125 575.203125,24.4335938 573.960938,24.4335938 C572.71875,24.4335938 570.996094,24.4453125 568.792969,24.46875 L568.582031,38.7773438 C568.511719,42.2695312 568.535156,44.3554688 568.652344,45.0351562 C568.769531,45.7148438 568.992188,46.3066406 569.320312,46.8105469 C569.648438,47.3144531 570.076172,47.71875 570.603516,48.0234375 C571.130859,48.328125 572.027344,48.5625 573.292969,48.7265625 C574.253906,48.7265625 575.033203,48.6855469 575.630859,48.6035156 C576.228516,48.5214844 576.984375,48.3164062 577.898438,47.9882812 L578.320312,49.359375 C577.21875,50.2265625 576.152344,51.1289062 575.121094,52.0664062 C574.230469,52.3945312 573.398438,52.6113281 572.625,52.7167969 C571.851562,52.8222656 570.960938,52.875 569.953125,52.875 C568.710938,52.875 567.720703,52.734375 566.982422,52.453125 C566.244141,52.171875 565.570312,51.7792969 564.960938,51.2753906 C564.351562,50.7714844 563.847656,50.1328125 563.449219,49.359375 C563.050781,48.5859375 562.792969,47.3671875 562.675781,45.703125 C562.699219,44.109375 562.746094,42.3632812 562.816406,40.4648438 C562.839844,40.0898438 562.851562,39.6796875 562.851562,39.234375 L562.851562,24.6445312 L561.410156,24.6445312 C560.238281,24.6445312 558.925781,24.703125 557.472656,24.8203125 Z" id="Path"></path>
            <path d="M609.292969,46.9335938 L608.167969,49.4648438 C606.550781,50.4726562 605.367188,51.140625 604.617188,51.46875 C603.515625,51.9609375 602.255859,52.3769531 600.837891,52.7167969 C599.419922,53.0566406 597.925781,53.2265625 596.355469,53.2265625 C593.261719,53.2265625 590.460938,52.5820312 587.953125,51.2929688 C585.445312,50.0039062 583.494141,48.0761719 582.099609,45.5097656 C580.705078,42.9433594 580.007812,39.9375 580.007812,36.4921875 C580.007812,33.796875 580.376953,31.3652344 581.115234,29.1972656 C581.853516,27.0292969 582.691406,25.4296875 583.628906,24.3984375 C584.308594,23.6484375 585.363281,22.7871094 586.792969,21.8144531 C588.222656,20.8417969 589.640625,20.0742188 591.046875,19.5117188 C592.898438,18.7382812 594.902344,18.3515625 597.058594,18.3515625 C599.683594,18.3515625 602.056641,18.9492188 604.177734,20.1445312 C606.298828,21.3398438 607.851562,22.96875 608.835938,25.03125 C609.820312,27.09375 610.3125,29.4257812 610.3125,32.0273438 C610.3125,32.6835938 610.265625,33.4804688 610.171875,34.4179688 C608.484375,34.7460938 606.972656,34.9570312 605.636719,35.0507812 C603.105469,35.2382812 600.574219,35.3320312 598.042969,35.3320312 L586.757812,35.3320312 C586.804688,38.6835938 587.384766,41.3964844 588.498047,43.4707031 C589.611328,45.5449219 591.146484,47.0742188 593.103516,48.0585938 C595.060547,49.0429688 597.09375,49.5351562 599.203125,49.5351562 C600.632812,49.5351562 602.056641,49.3066406 603.474609,48.8496094 C604.892578,48.3925781 606.644531,47.5546875 608.730469,46.3359375 L609.292969,46.9335938 Z M586.757812,32.5546875 C587.414062,32.625 588.65625,32.6953125 590.484375,32.765625 C593.976562,32.8828125 596.378906,32.9414062 597.691406,32.9414062 C600.808594,32.9414062 602.859375,32.8828125 603.84375,32.765625 C603.867188,32.203125 603.878906,31.7695312 603.878906,31.4648438 C603.878906,27.7617188 603.128906,25.0429688 601.628906,23.3085938 C600.128906,21.5742188 598.125,20.7070312 595.617188,20.7070312 C592.96875,20.7070312 590.835938,21.65625 589.21875,23.5546875 C587.601562,25.453125 586.78125,28.453125 586.757812,32.5546875 Z" id="Shape"></path>
            <path d="M614.847656,41.765625 L616.957031,41.765625 C616.980469,43.125 617.050781,44.203125 617.167969,45 C617.285156,45.796875 617.484375,46.5761719 617.765625,47.3378906 C618.046875,48.0996094 618.480469,48.7441406 619.066406,49.2714844 C619.652344,49.7988281 620.291016,50.2089844 620.982422,50.5019531 C621.673828,50.7949219 622.376953,50.9882812 623.091797,51.0820312 C623.806641,51.1757812 624.890625,51.2226562 626.34375,51.2226562 C628.734375,51.2226562 630.697266,50.5898438 632.232422,49.3242188 C633.767578,48.0585938 634.535156,46.3242188 634.535156,44.1210938 C634.535156,43.1367188 634.294922,42.2695312 633.814453,41.5195312 C633.333984,40.7695312 632.642578,40.1835938 631.740234,39.7617188 C630.837891,39.3398438 628.898438,38.7890625 625.921875,38.109375 C622.945312,37.4296875 621.023438,36.9375 620.15625,36.6328125 C618.84375,36.140625 617.800781,35.5429688 617.027344,34.8398438 C616.253906,34.1367188 615.638672,33.2460938 615.181641,32.1679688 C614.724609,31.0898438 614.496094,29.9179688 614.496094,28.6523438 C614.496094,26.8007812 614.982422,25.0957031 615.955078,23.5371094 C616.927734,21.9785156 618.457031,20.7128906 620.542969,19.7402344 C622.628906,18.7675781 624.902344,18.28125 627.363281,18.28125 C628.839844,18.28125 630.550781,18.4863281 632.496094,18.8964844 C634.441406,19.3066406 636.023438,19.8164062 637.242188,20.4257812 C637.078125,23.0273438 636.960938,25.6757812 636.890625,28.3710938 L634.886719,28.3710938 C634.769531,26.6601562 634.634766,25.5351562 634.482422,24.9960938 C634.330078,24.4570312 634.125,23.9765625 633.867188,23.5546875 C633.609375,23.1328125 633.164062,22.6816406 632.53125,22.2011719 C631.898438,21.7207031 631.083984,21.2929688 630.087891,20.9179688 C629.091797,20.5429688 627.867188,20.3554688 626.414062,20.3554688 C624.351562,20.3554688 622.693359,20.9648438 621.439453,22.1835938 C620.185547,23.4023438 619.558594,24.8320312 619.558594,26.4726562 C619.558594,27.3867188 619.740234,28.171875 620.103516,28.828125 C620.466797,29.484375 620.953125,30.0175781 621.5625,30.4277344 C622.171875,30.8378906 623.027344,31.2070312 624.128906,31.5351562 L629.964844,32.9765625 C632.917969,33.7265625 634.951172,34.3710938 636.064453,34.9101562 C637.177734,35.4492188 638.074219,36.2871094 638.753906,37.4238281 C639.433594,38.5605469 639.773438,39.9257812 639.773438,41.5195312 C639.773438,44.6835938 638.466797,47.4433594 635.853516,49.7988281 C633.240234,52.1542969 629.742188,53.3320312 625.359375,53.3320312 C623.34375,53.3320312 620.660156,53.0273438 617.308594,52.4179688 C615.457031,52.0664062 614.460938,51.8203125 614.320312,51.6796875 C614.226562,51.609375 614.179688,51.4921875 614.179688,51.328125 C614.179688,51.1640625 614.203125,50.9648438 614.25,50.7304688 C614.460938,49.7226562 614.601562,48.7382812 614.671875,47.7773438 C614.742188,46.8164062 614.800781,44.8125 614.847656,41.765625 Z" id="Path"></path>
        </g>
    </g>
</svg>