<svg xmlns="http://www.w3.org/2000/svg" viewBox="0 0 644 70"><g fill="#FFF" fill-rule="nonzero"><path d="M2.377 2.293V.043l10.758.21 9.914-.21v2.25c-2.79.047-4.483.17-5.08.37-.598.198-1.014.474-1.248.825-.282.469-.457 1.606-.528 3.41-.023.47-.07 3.797-.14 9.985v4.887c4.617.164 10.242.246 16.875.246 5.086 0 9.152-.082 12.199-.246v-4.887c0-3.188-.047-6.305-.14-9.352-.071-2.226-.24-3.545-.51-3.955-.27-.41-.704-.715-1.301-.914-.598-.2-2.291-.322-5.08-.369V.043c5.039.14 8.496.21 10.37.21.704 0 4.126-.07 10.266-.21v2.25c-2.765.047-4.453.17-5.062.37-.61.198-1.02.474-1.23.825-.305.469-.493 1.606-.563 3.41-.023.47-.07 3.797-.14 9.985V33.16c0 3.188.046 6.293.14 9.317.047 2.226.205 3.55.475 3.972.27.422.709.733 1.318.932.61.2 2.297.322 5.062.369V50c-4.523-.187-8.226-.281-11.109-.281-3.07 0-6.246.094-9.527.281v-2.25c2.789-.047 4.482-.17 5.08-.37.597-.198 1.013-.474 1.248-.825.305-.47.48-1.606.527-3.41.024-.493.082-3.82.176-9.985v-8.015c-6.563-.141-11.543-.211-14.941-.211-3.704 0-8.415.07-14.133.21v8.016c0 3.188.035 6.293.105 9.317.07 2.226.24 3.55.51 3.972.27.422.703.733 1.3.932.598.2 2.292.322 5.08.369V50c-3.163-.21-6.421-.316-9.773-.316-3.656 0-7.289.105-10.898.316v-2.25c2.766-.047 4.453-.17 5.062-.37.61-.198 1.032-.474 1.266-.825.281-.47.457-1.606.527-3.41.024-.493.07-3.82.141-9.985V16.883c0-3.188-.035-6.305-.105-9.352-.07-2.226-.24-3.545-.51-3.955-.27-.41-.703-.715-1.301-.914-.598-.2-2.291-.322-5.08-.369ZM90.514 44.55l-1.125 2.532c-1.618 1.008-2.801 1.676-3.551 2.004-1.102.492-2.361.908-3.78 1.248-1.417.34-2.912.51-4.482.51-3.094 0-5.894-.645-8.402-1.934-2.508-1.289-4.46-3.217-5.854-5.783-1.394-2.566-2.091-5.572-2.091-9.018 0-2.695.369-5.127 1.107-7.295s1.576-3.767 2.514-4.798c.68-.75 1.734-1.612 3.164-2.584 1.43-.973 2.847-1.74 4.254-2.303 1.851-.774 3.855-1.16 6.011-1.16 2.625 0 4.998.597 7.12 1.793 2.12 1.195 3.673 2.824 4.658 4.886.984 2.063 1.476 4.395 1.476 6.997 0 .656-.047 1.453-.14 2.39-1.688.328-3.2.54-4.536.633-2.53.187-5.062.281-7.593.281H67.979c.046 3.352.626 6.065 1.74 8.139 1.113 2.074 2.648 3.603 4.605 4.588 1.957.984 3.99 1.476 6.1 1.476 1.43 0 2.853-.228 4.271-.685 1.418-.457 3.17-1.295 5.256-2.514l.563.598ZM67.979 30.173c.656.07 1.898.14 3.726.21 3.492.118 5.895.177 7.207.177 3.117 0 5.168-.059 6.152-.176.024-.563.036-.996.036-1.301 0-3.703-.75-6.422-2.25-8.156-1.5-1.735-3.504-2.602-6.012-2.602-2.649 0-4.781.95-6.399 2.848-1.617 1.898-2.437 4.898-2.46 9ZM102.959.5c1.102 0 2.033.387 2.795 1.16.762.774 1.142 1.711 1.142 2.813 0 1.078-.386 2.004-1.16 2.777-.773.773-1.699 1.16-2.777 1.16-1.102 0-2.04-.387-2.813-1.16-.773-.773-1.16-1.7-1.16-2.777 0-1.102.387-2.04 1.16-2.813C100.92.887 101.857.5 102.96.5Zm-8.578 20.566v-2.003c4.547-.516 8.367-1.5 11.46-2.954l.774.563c-.187 4.992-.281 8.812-.281 11.46v6.4c.117 6.093.187 9.386.21 9.878.024 1.172.153 2.028.388 2.567.117.21.27.392.457.544.187.153.468.276.843.37.141.023 1.442.058 3.903.105V50c-3.563-.164-6.41-.246-8.543-.246-1.875 0-4.946.082-9.211.246v-2.004l3.34-.035c.492-.023.873-.111 1.142-.264.27-.152.475-.345.616-.58.257-.469.421-1.3.492-2.496 0-.305.07-3.668.21-10.09v-6.187c0-3.492-.117-5.567-.35-6.223a1.465 1.465 0 0 0-.757-.79c-.363-.177-1.928-.265-4.693-.265ZM114.28 50v-2.004c2.648-.047 4.077-.094 4.288-.14.399-.07.698-.182.897-.335.2-.152.357-.369.474-.65.235-.539.375-1.383.422-2.531.141-6.258.211-9.527.211-9.809v-4.183c0-1.875-.035-3.891-.105-6.047-.047-1.383-.147-2.203-.299-2.461s-.422-.451-.809-.58c-.386-.13-1.916-.182-4.588-.158v-2.004c4.735-.657 8.192-1.512 10.372-2.567.468-.234.785-.351.949-.351.164 0 .293.058.387.175.093.118.14.293.14.528 0 .164-.012.351-.035.562-.117 1.43-.188 3.645-.211 6.645a63.77 63.77 0 0 0 2.918-3.621c.89-1.196 1.535-1.969 1.934-2.32a8.415 8.415 0 0 1 2.425-1.46 7.642 7.642 0 0 1 2.848-.544c.984 0 1.957.21 2.918.632l.211.493c-.352 3.117-.55 5.859-.598 8.226h-1.582c-.539-1.125-1.166-1.945-1.88-2.46-.715-.516-1.612-.774-2.69-.774-1.805 0-3.34.744-4.606 2.232-1.265 1.488-1.898 3.72-1.898 6.697v3.622c0 1.546.059 4.37.176 8.472.023 1.453.082 2.38.176 2.778.093.398.216.685.369.86.152.177.404.323.756.44.703.211 2.601.422 5.695.633V50c-4.125-.164-7.64-.246-10.547-.246-3 0-5.906.082-8.719.246ZM143.213 39.383h2.11c.023 1.36.093 2.437.21 3.234.117.797.317 1.576.598 2.338a4.79 4.79 0 0 0 1.3 1.934 6.846 6.846 0 0 0 1.917 1.23 8.081 8.081 0 0 0 2.109.58c.715.094 1.799.14 3.252.14 2.39 0 4.353-.632 5.889-1.898 1.535-1.265 2.302-3 2.302-5.203 0-.984-.24-1.851-.72-2.601s-1.172-1.336-2.075-1.758c-.902-.422-2.841-.973-5.818-1.652-2.976-.68-4.898-1.172-5.766-1.477-1.312-.492-2.355-1.09-3.128-1.793-.774-.703-1.39-1.594-1.846-2.672-.457-1.078-.686-2.25-.686-3.515 0-1.852.487-3.557 1.46-5.116.972-1.558 2.501-2.824 4.587-3.797 2.086-.972 4.36-1.459 6.82-1.459 1.477 0 3.188.206 5.133.616 1.946.41 3.528.92 4.746 1.529-.164 2.602-.28 5.25-.351 7.945h-2.004c-.117-1.71-.252-2.836-.404-3.375a5.746 5.746 0 0 0-.616-1.441c-.257-.422-.703-.873-1.336-1.354-.632-.48-1.447-.908-2.443-1.283-.996-.375-2.22-.562-3.674-.562-2.062 0-3.72.609-4.974 1.828s-1.881 2.648-1.881 4.289c0 .914.181 1.7.545 2.355a4.56 4.56 0 0 0 1.459 1.6c.61.41 1.465.78 2.566 1.107l5.836 1.442c2.953.75 4.986 1.394 6.1 1.933 1.113.54 2.01 1.377 2.69 2.514.679 1.137 1.019 2.502 1.019 4.096 0 3.164-1.307 5.924-3.92 8.279-2.614 2.355-6.112 3.533-10.494 3.533-2.016 0-4.7-.304-8.051-.914-1.852-.351-2.848-.597-2.988-.738-.094-.07-.141-.188-.141-.352 0-.164.023-.363.07-.597.211-1.008.352-1.993.422-2.953.07-.961.129-2.965.176-6.012ZM188.6 33.828c0-5.25 1.67-9.533 5.01-12.85 3.34-3.316 7.622-4.974 12.849-4.974 4.922 0 8.93 1.547 12.023 4.64 3.094 3.094 4.641 7.09 4.641 11.989 0 3.422-.797 6.55-2.39 9.387-1.594 2.835-3.844 5.056-6.75 6.662-2.907 1.605-6.106 2.408-9.598 2.408-2.719 0-5.022-.457-6.908-1.371-1.887-.914-3.416-2.063-4.588-3.446-1.172-1.382-2.063-2.8-2.672-4.253-1.078-2.555-1.617-5.286-1.617-8.192Zm6.644-2.601c0 2.882.48 5.812 1.442 8.789.96 2.976 2.35 5.15 4.166 6.521 1.816 1.371 3.79 2.057 5.923 2.057 2.72 0 4.993-1.078 6.82-3.235 1.829-2.156 2.743-5.472 2.743-9.949 0-3.726-.545-6.943-1.635-9.65-1.09-2.707-2.478-4.617-4.166-5.73-1.687-1.114-3.55-1.67-5.59-1.67-2.883 0-5.22 1.042-7.013 3.128-1.793 2.086-2.69 5.332-2.69 9.739ZM227.06 22.508v-1.442c1.829-.773 3.446-1.593 4.852-2.46v-2.11c0-3.047.193-5.197.58-6.451.387-1.254.932-2.373 1.635-3.357 1.055-1.454 2.719-3.305 4.992-5.555 1.524-1.477 2.649-2.403 3.375-2.778.961-.492 2.086-.738 3.375-.738.914 0 1.852.153 2.813.457l.14 5.836-.808.317c-.727-.61-1.448-1.055-2.162-1.336-.715-.282-1.553-.422-2.514-.422-1.266 0-2.297.258-3.094.773-.797.516-1.377 1.254-1.74 2.215-.363.961-.545 2.918-.545 5.871v7.277h3.727c1.875 0 3.714-.07 5.52-.21l.35.21-.702 3.622c-2.04-.094-3.54-.141-4.5-.141-.985 0-2.45.047-4.395.14v12.587c0 1.546.059 4.37.176 8.472.023 1.453.082 2.38.176 2.778.093.398.216.685.369.86.152.177.404.323.756.44.703.211 2.601.422 5.695.633V50c-5.461-.164-8.79-.246-9.985-.246-1.078 0-4.09.082-9.035.246v-2.004l3.34-.035c.492-.023.873-.111 1.143-.264.27-.152.474-.345.615-.58.258-.469.422-1.3.492-2.496 0-.305.07-3.668.211-10.09V22.227l-4.851.28ZM265.838 2.293V.043l10.758.21 9.914-.21v2.25c-2.79.047-4.483.17-5.08.37-.598.198-1.014.474-1.248.825-.282.469-.457 1.606-.528 3.41-.023.47-.07 3.797-.14 9.985v4.887c4.617.164 10.242.246 16.875.246 5.086 0 9.152-.082 12.199-.246v-4.887c0-3.188-.047-6.305-.14-9.352-.071-2.226-.241-3.545-.51-3.955-.27-.41-.704-.715-1.301-.914-.598-.2-2.291-.322-5.08-.369V.043c5.039.14 8.496.21 10.37.21.704 0 4.126-.07 10.266-.21v2.25c-2.765.047-4.453.17-5.062.37-.61.198-1.02.474-1.23.825-.305.469-.493 1.606-.563 3.41-.024.47-.07 3.797-.14 9.985V33.16c0 3.188.046 6.293.14 9.317.047 2.226.205 3.55.474 3.972.27.422.71.733 1.319.932.61.2 2.297.322 5.062.369V50c-4.523-.187-8.226-.281-11.109-.281-3.07 0-6.246.094-9.527.281v-2.25c2.789-.047 4.482-.17 5.08-.37.597-.198 1.013-.474 1.248-.825.304-.47.48-1.606.527-3.41.024-.493.082-3.82.176-9.985v-8.015c-6.563-.141-11.543-.211-14.942-.211-3.703 0-8.414.07-14.132.21v8.016c0 3.188.035 6.293.105 9.317.07 2.226.24 3.55.51 3.972.27.422.703.733 1.3.932.598.2 2.292.322 5.08.369V50c-3.163-.21-6.421-.316-9.773-.316-3.656 0-7.289.105-10.898.316v-2.25c2.766-.047 4.453-.17 5.062-.37.61-.198 1.032-.474 1.266-.825.281-.47.457-1.606.527-3.41.024-.493.07-3.82.141-9.985V16.883c0-3.188-.035-6.305-.105-9.352-.07-2.226-.24-3.545-.51-3.955-.27-.41-.703-.715-1.301-.914-.598-.2-2.291-.322-5.08-.369ZM333.057.5c1.101 0 2.033.387 2.795 1.16.761.774 1.142 1.711 1.142 2.813 0 1.078-.387 2.004-1.16 2.777-.773.773-1.7 1.16-2.777 1.16-1.102 0-2.04-.387-2.813-1.16-.773-.773-1.16-1.7-1.16-2.777 0-1.102.387-2.04 1.16-2.813.774-.773 1.711-1.16 2.813-1.16Zm-8.578 20.566v-2.003c4.546-.516 8.367-1.5 11.46-2.954l.774.563c-.188 4.992-.281 8.812-.281 11.46v6.4c.117 6.093.187 9.386.21 9.878.024 1.172.153 2.028.387 2.567.117.21.27.392.457.544.188.153.47.276.844.37.14.023 1.441.058 3.902.105V50c-3.562-.164-6.41-.246-8.543-.246-1.875 0-4.945.082-9.21.246v-2.004l3.34-.035c.492-.023.872-.111 1.142-.264.27-.152.475-.345.615-.58.258-.469.422-1.3.492-2.496 0-.305.07-3.668.211-10.09v-6.187c0-3.492-.117-5.567-.351-6.223a1.465 1.465 0 0 0-.756-.79c-.363-.177-1.928-.265-4.693-.265ZM343.99 21.066v-2.039c.422 0 1.313-.1 2.672-.298 1.36-.2 2.871-.54 4.535-1.02 1.664-.48 2.918-.943 3.762-1.389.258-.14.469-.21.633-.21a.52.52 0 0 1 .404.175c.106.117.158.317.158.598 0 .117-.011.398-.035.844-.047.68-.07 1.3-.07 1.863v3.726c3.96-3.68 6.433-5.753 7.418-6.222 1.289-.633 3.21-.95 5.765-.95 2.977 0 5.543.674 7.7 2.022 2.156 1.348 3.72 3.094 4.693 5.238.973 2.145 1.459 4.436 1.459 6.873 0 1.477-.17 2.871-.51 4.184a23.039 23.039 0 0 1-3.059 6.908c-.644.973-1.247 1.705-1.81 2.197-.328.305-1.178 1.008-2.549 2.11a26.44 26.44 0 0 1-4.394 2.865c-1.559.809-2.643 1.307-3.252 1.494a14.046 14.046 0 0 1-4.254.633 13.94 13.94 0 0 1-3.428-.422c-1.113-.281-2.373-.762-3.78-1.441v5.59c.118 5.93.188 9.199.212 9.808.023 1.149.164 1.992.422 2.531.093.258.24.463.44.616.198.152.485.263.86.334.211.046 1.606.093 4.184.14v2.004c-2.93-.117-6.809-.176-11.637-.176-2.672 0-4.722.059-6.152.176v-2.004l3.34-.035c.492-.023.873-.111 1.142-.264.27-.152.475-.345.616-.58.257-.468.421-1.3.492-2.496.023-.304.094-3.656.21-10.054v-12.48c0-4.056-.046-8.216-.14-12.481-.094-4.266-.193-6.592-.299-6.979-.105-.387-.275-.68-.51-.879-.234-.199-.539-.334-.914-.404l-4.324-.106Zm12.059 21.692a14.126 14.126 0 0 0 4.254 2.988c1.593.727 3.27 1.09 5.027 1.09 2.133 0 4.072-.533 5.818-1.6 1.747-1.066 3.13-2.724 4.149-4.974 1.02-2.25 1.53-4.7 1.53-7.348 0-2.555-.487-4.775-1.46-6.662-.972-1.887-2.35-3.305-4.13-4.254-1.782-.95-3.575-1.424-5.38-1.424-1.336 0-2.654.264-3.955.791a11.142 11.142 0 0 0-3.533 2.303c-1.055 1.008-1.758 1.969-2.11 2.883-.14.445-.21 1.3-.21 2.566v13.64ZM386.143 21.066v-2.039c.421 0 1.312-.1 2.671-.298 1.36-.2 2.872-.54 4.536-1.02 1.664-.48 2.918-.943 3.761-1.389.258-.14.47-.21.633-.21a.52.52 0 0 1 .404.175c.106.117.159.317.159.598 0 .117-.012.398-.036.844-.046.68-.07 1.3-.07 1.863v3.726c3.961-3.68 6.434-5.753 7.418-6.222 1.29-.633 3.211-.95 5.766-.95 2.976 0 5.543.674 7.699 2.022 2.156 1.348 3.72 3.094 4.693 5.238.973 2.145 1.46 4.436 1.46 6.873 0 1.477-.17 2.871-.51 4.184a23.04 23.04 0 0 1-3.059 6.908c-.645.973-1.248 1.705-1.81 2.197-.329.305-1.178 1.008-2.55 2.11a26.44 26.44 0 0 1-4.394 2.865c-1.559.809-2.643 1.307-3.252 1.494a14.046 14.046 0 0 1-4.254.633 13.94 13.94 0 0 1-3.428-.422c-1.113-.281-2.373-.762-3.779-1.441v5.59c.117 5.93.188 9.199.211 9.808.024 1.149.164 1.992.422 2.531.094.258.24.463.44.616.199.152.486.263.86.334.212.046 1.606.093 4.184.14v2.004c-2.93-.117-6.808-.176-11.636-.176-2.672 0-4.723.059-6.153.176v-2.004l3.34-.035c.492-.023.873-.111 1.143-.264.27-.152.474-.345.615-.58.258-.468.422-1.3.492-2.496.024-.304.094-3.656.211-10.054v-12.48c0-4.056-.047-8.216-.14-12.481-.094-4.266-.194-6.592-.3-6.979-.105-.387-.275-.68-.51-.879-.234-.199-.538-.334-.913-.404l-4.324-.106ZM398.2 42.758a14.126 14.126 0 0 0 4.254 2.988c1.594.727 3.27 1.09 5.027 1.09 2.133 0 4.073-.533 5.819-1.6 1.746-1.066 3.129-2.724 4.148-4.974 1.02-2.25 1.53-4.7 1.53-7.348 0-2.555-.487-4.775-1.46-6.662-.972-1.887-2.35-3.305-4.13-4.254-1.782-.95-3.575-1.424-5.38-1.424-1.335 0-2.654.264-3.954.791a11.142 11.142 0 0 0-3.534 2.303c-1.054 1.008-1.757 1.969-2.109 2.883-.14.445-.21 1.3-.21 2.566v13.64ZM429.42 33.828c0-5.25 1.67-9.533 5.01-12.85 3.34-3.316 7.623-4.974 12.85-4.974 4.921 0 8.929 1.547 12.023 4.64 3.093 3.094 4.64 7.09 4.64 11.989 0 3.422-.797 6.55-2.39 9.387-1.594 2.835-3.844 5.056-6.75 6.662-2.907 1.605-6.106 2.408-9.598 2.408-2.719 0-5.021-.457-6.908-1.371-1.887-.914-3.416-2.063-4.588-3.446-1.172-1.382-2.063-2.8-2.672-4.253-1.078-2.555-1.617-5.286-1.617-8.192Zm6.644-2.601c0 2.882.48 5.812 1.442 8.789.96 2.976 2.35 5.15 4.166 6.521 1.816 1.371 3.79 2.057 5.924 2.057 2.718 0 4.992-1.078 6.82-3.235 1.828-2.156 2.742-5.472 2.742-9.949 0-3.726-.545-6.943-1.635-9.65-1.09-2.707-2.478-4.617-4.166-5.73-1.687-1.114-3.55-1.67-5.59-1.67-2.882 0-5.22 1.042-7.013 3.128-1.793 2.086-2.69 5.332-2.69 9.739ZM495.725 45.957l-1.407 2.356c-1.617.867-3.216 1.5-4.798 1.898-1.582.398-3.37.598-5.362.598-4.922 0-8.842-1.483-11.76-4.448-2.918-2.965-4.377-7.037-4.377-12.216 0-2.743.393-5.127 1.178-7.155.785-2.027 1.752-3.592 2.9-4.693.774-.774 2.245-1.776 4.413-3.006 2.168-1.23 3.685-2.021 4.552-2.373 1.594-.68 3.504-1.02 5.73-1.02 2.11 0 4.009.223 5.696.668 1.078.282 2.156.75 3.235 1.407-.282 1.804-.48 3.17-.598 4.095-.117.926-.27 2.608-.457 5.045h-2.004c-.14-2.273-.281-3.691-.422-4.254-.094-.351-.305-.668-.633-.949-.843-.656-1.927-1.224-3.252-1.705-1.324-.48-2.771-.72-4.341-.72-1.97 0-3.674.404-5.116 1.212-1.441.809-2.56 2.092-3.357 3.85-.797 1.758-1.195 3.937-1.195 6.539 0 3.187.562 6.07 1.687 8.648 1.125 2.579 2.654 4.46 4.588 5.643 1.934 1.184 4.096 1.775 6.486 1.775a13.96 13.96 0 0 0 3.498-.44c1.137-.292 2.596-.849 4.377-1.669l.739.914ZM497.693 50v-2.004c2.649-.047 4.078-.094 4.29-.14.398-.07.697-.182.896-.335.2-.152.357-.369.475-.65.234-.539.375-1.383.421-2.531.141-6.258.211-9.527.211-9.809v-4.183c0-1.875-.035-3.891-.105-6.047-.047-1.383-.147-2.203-.299-2.461s-.422-.451-.809-.58c-.386-.13-1.916-.182-4.587-.158v-2.004c4.734-.657 8.191-1.512 10.37-2.567.47-.234.786-.351.95-.351.164 0 .293.058.387.175.093.118.14.293.14.528 0 .164-.012.351-.035.562-.117 1.43-.187 3.645-.21 6.645a63.77 63.77 0 0 0 2.917-3.621c.89-1.196 1.535-1.969 1.934-2.32a8.415 8.415 0 0 1 2.425-1.46 7.642 7.642 0 0 1 2.848-.544c.984 0 1.957.21 2.918.632l.211.493c-.352 3.117-.55 5.859-.598 8.226h-1.582c-.539-1.125-1.166-1.945-1.88-2.46-.715-.516-1.612-.774-2.69-.774-1.805 0-3.34.744-4.605 2.232-1.266 1.488-1.899 3.72-1.899 6.697v3.622c0 1.546.059 4.37.176 8.472.023 1.453.082 2.38.176 2.778.093.398.216.685.369.86.152.177.404.323.756.44.703.211 2.601.422 5.695.633V50c-4.125-.164-7.64-.246-10.547-.246-3 0-5.906.082-8.719.246ZM530.986 25.918l-1.863-.492c.023-.54.035-1.278.035-2.215 0-.984-.012-1.77-.035-2.356 2.977-1.945 5.414-3.257 7.313-3.937 1.453-.492 3.082-.738 4.886-.738 2.672 0 4.922.504 6.75 1.511 1.828 1.008 3.188 2.45 4.078 4.325.61 1.312.914 3.105.914 5.379l-.14 6.433v10.477c0 1.125.094 1.933.281 2.425.14.352.363.61.668.774.234.14.727.234 1.477.281l2.285.211V50c-1.922-.164-3.61-.246-5.063-.246-1.406 0-3.281.082-5.625.246l.176-6.187c-4.781 3.609-7.617 5.642-8.508 6.1-.89.456-2.015.685-3.375.685-2.836 0-5.045-.756-6.627-2.268-1.582-1.512-2.373-3.521-2.373-6.03 0-1.616.276-3.093.826-4.429.551-1.336 1.213-2.396 1.987-3.182.773-.785 1.558-1.365 2.355-1.74 1.36-.633 3.569-1.312 6.627-2.039a79.187 79.187 0 0 1 9.088-1.617c.023-2.227-.246-3.961-.809-5.203-.562-1.242-1.511-2.262-2.847-3.059-1.336-.797-2.965-1.195-4.887-1.195-1.383 0-2.596.187-3.639.562-1.043.375-1.681.692-1.916.95l-.632 1.265c-.633 1.407-1.102 2.508-1.407 3.305Zm16.137 5.52c-3.047.515-5.648 1.09-7.805 1.722-2.156.633-3.68 1.29-4.57 1.969-.539.398-1.008.996-1.406 1.793-.61 1.172-.914 2.473-.914 3.902 0 1.735.48 3.088 1.441 4.06.961.973 2.297 1.46 4.008 1.46 1.57 0 3.123-.451 4.658-1.354 1.535-.902 3.065-2.256 4.588-4.06v-9.492ZM559.85 22.438V20.96c2.343-.89 4.207-1.688 5.59-2.39 0-5.579-.07-9.141-.211-10.688 2.437-.844 4.417-1.746 5.94-2.707l.845.703c-.258 1.945-.54 6.234-.844 12.867 1.875.024 3 .035 3.375.035.21 0 1.418-.023 3.621-.07 1.219-.023 2.133-.07 2.742-.14l.246.245-.738 3.27a258.397 258.397 0 0 0-4.078-.035c-1.242 0-2.965.012-5.168.035l-.211 14.309c-.07 3.492-.047 5.578.07 6.257.117.68.34 1.272.668 1.776s.756.908 1.283 1.213c.528.304 1.424.539 2.69.703.96 0 1.74-.041 2.338-.123.597-.082 1.353-.287 2.267-.616l.422 1.372a59.098 59.098 0 0 0-3.199 2.707c-.89.328-1.723.545-2.496.65-.773.105-1.664.158-2.672.158-1.242 0-2.232-.14-2.97-.422a7.14 7.14 0 0 1-2.022-1.177c-.61-.504-1.113-1.143-1.512-1.916-.398-.774-.656-1.993-.773-3.657.023-1.593.07-3.34.14-5.238.024-.375.036-.785.036-1.23v-14.59h-1.442c-1.172 0-2.484.058-3.937.176ZM611.67 44.55l-1.125 2.532c-1.617 1.008-2.8 1.676-3.55 2.004-1.102.492-2.362.908-3.78 1.248-1.418.34-2.912.51-4.483.51-3.093 0-5.894-.645-8.402-1.934-2.508-1.289-4.459-3.217-5.853-5.783-1.395-2.566-2.092-5.572-2.092-9.018 0-2.695.369-5.127 1.107-7.295s1.576-3.767 2.514-4.798c.68-.75 1.734-1.612 3.164-2.584 1.43-.973 2.848-1.74 4.254-2.303 1.851-.774 3.855-1.16 6.012-1.16 2.625 0 4.998.597 7.119 1.793 2.12 1.195 3.674 2.824 4.658 4.886.984 2.063 1.476 4.395 1.476 6.997 0 .656-.046 1.453-.14 2.39-1.688.328-3.2.54-4.535.633-2.532.187-5.063.281-7.594.281h-11.285c.047 3.352.627 6.065 1.74 8.139 1.113 2.074 2.648 3.603 4.605 4.588 1.957.984 3.99 1.476 6.1 1.476 1.43 0 2.854-.228 4.272-.685 1.418-.457 3.17-1.295 5.255-2.514l.563.598Zm-22.535-14.378c.656.07 1.898.14 3.726.21 3.493.118 5.895.177 7.207.177 3.118 0 5.168-.059 6.153-.176.023-.563.035-.996.035-1.301 0-3.703-.75-6.422-2.25-8.156-1.5-1.735-3.504-2.602-6.012-2.602-2.648 0-4.781.95-6.398 2.848s-2.438 4.898-2.461 9ZM617.225 39.383h2.109c.023 1.36.094 2.437.21 3.234.118.797.317 1.576.599 2.338a4.79 4.79 0 0 0 1.3 1.934 6.846 6.846 0 0 0 1.916 1.23 8.081 8.081 0 0 0 2.11.58c.715.094 1.799.14 3.252.14 2.39 0 4.353-.632 5.888-1.898 1.536-1.265 2.303-3 2.303-5.203 0-.984-.24-1.851-.72-2.601-.481-.75-1.172-1.336-2.075-1.758-.902-.422-2.842-.973-5.818-1.652-2.977-.68-4.899-1.172-5.766-1.477-1.312-.492-2.355-1.09-3.129-1.793-.773-.703-1.388-1.594-1.845-2.672-.457-1.078-.686-2.25-.686-3.515 0-1.852.486-3.557 1.459-5.116.973-1.558 2.502-2.824 4.588-3.797 2.086-.972 4.36-1.459 6.82-1.459 1.477 0 3.188.206 5.133.616 1.945.41 3.527.92 4.746 1.529-.164 2.602-.281 5.25-.351 7.945h-2.004c-.118-1.71-.252-2.836-.405-3.375a5.746 5.746 0 0 0-.615-1.441c-.258-.422-.703-.873-1.336-1.354-.633-.48-1.447-.908-2.443-1.283-.996-.375-2.22-.562-3.674-.562-2.062 0-3.72.609-4.975 1.828-1.254 1.219-1.88 2.648-1.88 4.289 0 .914.181 1.7.544 2.355a4.56 4.56 0 0 0 1.46 1.6c.609.41 1.464.78 2.566 1.107l5.836 1.442c2.953.75 4.986 1.394 6.1 1.933 1.113.54 2.01 1.377 2.689 2.514.68 1.137 1.02 2.502 1.02 4.096 0 3.164-1.307 5.924-3.92 8.279-2.614 2.355-6.112 3.533-10.495 3.533-2.015 0-4.699-.304-8.05-.914-1.852-.351-2.848-.597-2.989-.738-.093-.07-.14-.188-.14-.352 0-.164.023-.363.07-.597.21-1.008.352-1.993.422-2.953.07-.961.129-2.965.176-6.012Z"/></g></svg>